<svg xmlns="http://www.w3.org/2000/svg" width="304" height="126" viewBox="0 0 304 126">
    <g fill="none" fill-rule="nonzero">
        <path fill="#000" d="M29.18 4.263c-.784 0-1.392.336-1.521 1.036-.13.7.355 1.036 1.139 1.036S30.176 6 30.305 5.3s-.341-1.036-1.125-1.036zm-.718 3.892c-2.002 0-3.28-1.19-2.973-2.856.307-1.666 2.024-2.856 4.026-2.856 1.988 0 3.267 1.19 2.96 2.856-.307 1.666-2.025 2.856-4.013 2.856zm3.945.168l-.148 1.638c-1.018.21-2.019.322-3.031.42l-.797 4.326h-2.268l.771-4.186a70.372 70.372 0 0 1-2.824.056l.067-1.806c2.226 0 5.423-.028 8.23-.448zm1.816-6.356h2.268l-2.418 13.118h-2.268l2.418-13.118zm13.994 3.906l-.276 1.498h-9.31l.952-5.166h9.184l-.276 1.498h-6.93l-.07.378h6.65l-.263 1.428h-6.65l-.067.364h7.056zm-8.48 7.266l-.066.364h7.252l-.287 1.554h-9.492l.622-3.374h6.93l.065-.35h-6.958l.286-1.554h9.198l-.62 3.36h-6.93zm-2.534-5.39h11.83l-.302 1.638h-11.83l.302-1.638zm15.73.56l-.368 2.002c1.881-.028 3.425-.126 5.117-.42l-.111 1.82c-2.055.364-3.986.434-6.45.434h-1.204l1.032-5.6h3.948l.323-1.75h-3.962l.327-1.778h6.272l-.975 5.292h-3.948zm6.94-6.356h2.269l-2.434 13.202H57.44l2.434-13.202zm9.925 5.25l.475-2.576h-1.078l-.475 2.576h1.078zm2.163-.42l-.387 2.1H66.31l1.097-5.95h5.264l-.38 2.058h.77l.517-2.8h2.1l-1.33 7.21h-2.1l.483-2.618h-.77zM69.83 11.74l-.274 1.484h4.62l.274-1.484h-4.62zm-2.822 3.234l.918-4.984h9.058l-.918 4.984h-9.058zM76.32 1.967h2.142l-1.391 7.546H74.93l1.39-7.546zm6.905 8.414l.48-2.604h-2.002l-.48 2.604h2.002zm5.74-8.428h2.268L88.8 15.155h-2.268l1.277-6.93h-1.96l-.725 3.934h-6.468l1.69-9.17h2.24l-.562 3.052h2.002l.563-3.052h2.226l-.635 3.444h1.96l.826-4.48zm11.19 5.068l-1.404 1.764c-1.381-.406-2.186-1.204-2.586-2.226-.794 1.12-1.953 2.016-3.57 2.436l-.767-1.764c2.445-.658 3.467-2.254 3.733-3.696l.22-1.19h2.31l-.22 1.19c-.26 1.414.154 2.884 2.283 3.486zm-.509 6.174l.165-.896h-4.41l-.165.896h4.41zm.48-2.604l.189-1.022h2.24l-.996 5.404h-8.89l.996-5.404h2.24l-.189 1.022h4.41zm1.56-8.61h2.267l-1.3 7.056h-2.268l1.3-7.056zm5.541 8.442c.56 0 .987-.798 1.346-2.744.359-1.946.226-2.744-.334-2.744-.546 0-.973.798-1.332 2.744-.359 1.946-.226 2.744.32 2.744zm4.236-3.766l.834-4.522h2.1l-2.289 12.418h-2.1l1.123-6.09h-.686c-.657 2.576-2.003 4.102-3.613 4.102-1.75 0-2.534-1.82-1.969-4.886.565-3.066 2.02-4.886 3.77-4.886 1.555 0 2.341 1.428 2.13 3.864h.7zm3.584-4.704h2.142l-2.421 13.132h-2.142l2.42-13.132zm7.174 1.33h6.3c-.748 4.06-2.756 7.434-7.607 9.674l-.945-1.708c3.177-1.512 5.046-3.374 5.923-6.16h-4.004l.333-1.806zm10.9 3.528l-.34 1.848h-1.695l-1.184 6.426h-2.268l2.42-13.132h2.269l-.896 4.858h1.694zm10.41-4.83h2.268l-1.303 7.07h-2.268l1.303-7.07zm-8.02 7.588h2.24l-.189 1.022h4.41l.189-1.022h2.24l-.996 5.404h-8.89l.996-5.404zm1.736 2.73l-.165.896h4.41l.165-.896h-4.41zm1.252-9.828c2.072 0 3.411 1.316 3.076 3.136-.338 1.834-2.163 3.15-4.235 3.15-2.072 0-3.411-1.316-3.073-3.15.335-1.82 2.16-3.136 4.232-3.136zm-.34 1.848c-.84 0-1.523.434-1.68 1.288-.16.868.362 1.302 1.202 1.302s1.522-.434 1.682-1.302c.157-.854-.365-1.288-1.205-1.288zm11.655 6.412c.742 0 1.332-.462 1.5-1.372.167-.91-.252-1.372-.994-1.372-.728 0-1.33.462-1.499 1.372-.167.91.265 1.372.993 1.372zm.842-4.564c1.946 0 3.157 1.33 2.813 3.192-.343 1.862-2.044 3.192-3.99 3.192-1.946 0-3.157-1.33-2.814-3.192.344-1.862 2.045-3.192 3.99-3.192zm1.861-3.948l-.296 1.61h2.66l-.328 1.778h-7.602l.328-1.778h2.674l.296-1.61h2.268zm6.406 4.746l-.341 1.848h-1.736l-1.159 6.286h-2.268l2.418-13.118h2.268l-.918 4.984h1.736zm10.414 3.654l-2.21-.238a29.815 29.815 0 0 0 1.57-5.628h-7.449l.328-1.778h9.716l-.227 1.232c-.302 1.638-.65 3.528-1.728 6.412zm-4.343 1.232h5.656l-.333 1.806h-11.9l.333-1.806h3.976l.815-4.424h2.268l-.815 4.424z"/>
        <path fill="#FF9835" d="M30.364 3.27c-.784 0-1.392.335-1.52 1.035-.13.7.354 1.036 1.138 1.036.784 0 1.378-.336 1.507-1.036.13-.7-.341-1.036-1.125-1.036zm-.717 3.891c-2.002 0-3.281-1.19-2.974-2.856C26.98 2.64 28.698 1.45 30.7 1.45c1.988 0 3.266 1.19 2.96 2.856-.308 1.666-2.025 2.856-4.013 2.856zm3.945.168l-.148 1.638c-1.019.21-2.02.322-3.032.42l-.797 4.326h-2.268l.772-4.186a70.372 70.372 0 0 1-2.825.056l.067-1.806c2.226 0 5.423-.028 8.23-.448zM35.407.973h2.268l-2.418 13.118H32.99L35.407.973zM49.401 4.88l-.276 1.498h-9.31l.952-5.166h9.184l-.276 1.498h-6.93l-.07.378h6.65l-.263 1.428h-6.65l-.067.364h7.056zm-8.48 7.266l-.066.364h7.252l-.287 1.554h-9.492l.622-3.374h6.93l.065-.35h-6.958l.286-1.554h9.198l-.62 3.36h-6.93zm-2.534-5.39h11.83l-.301 1.638h-11.83l.301-1.638zm15.731.56l-.369 2.002c1.881-.028 3.425-.126 5.118-.42l-.112 1.82c-2.055.364-3.986.434-6.45.434h-1.204l1.032-5.6h3.948l.323-1.75h-3.962l.328-1.778h6.272l-.976 5.292h-3.948zM61.058.96h2.268l-2.434 13.202h-2.268L61.058.96z"/>
        <path fill="#FFF" d="M70.982 6.21l.475-2.577h-1.078l-.475 2.576h1.078zm2.164-.42l-.388 2.1h-5.264l1.097-5.95h5.264l-.38 2.057h.77l.517-2.8h2.1l-1.329 7.21h-2.1l.483-2.618h-.77zm-2.132 4.955l-.274 1.484h4.62l.274-1.484h-4.62zm-2.822 3.234l.919-4.984h9.058l-.92 4.984h-9.057zM77.505.973h2.142l-1.39 7.546h-2.143L77.505.973zm6.905 8.414l.48-2.604h-2.002l-.48 2.604h2.002zM90.15.96h2.268l-2.434 13.202h-2.268l1.278-6.93h-1.96l-.725 3.934H79.84l1.69-9.17h2.24l-.563 3.052h2.002l.563-3.052h2.226l-.635 3.444h1.96L90.15.96zm11.19 5.068l-1.403 1.764c-1.382-.406-2.187-1.204-2.586-2.226-.795 1.12-1.954 2.016-3.571 2.436l-.767-1.764c2.445-.658 3.467-2.254 3.733-3.696l.22-1.19h2.31l-.22 1.19c-.26 1.414.155 2.884 2.284 3.486zm-.508 6.174l.165-.896h-4.41l-.165.896h4.41zm.48-2.604l.188-1.022h2.24l-.996 5.404h-8.89l.996-5.404h2.24l-.188 1.022h4.41zm1.559-8.61h2.268l-1.3 7.056h-2.269l1.3-7.056zm5.542 8.442c.56 0 .987-.798 1.345-2.744.36-1.946.226-2.744-.334-2.744-.546 0-.973.798-1.332 2.744-.358 1.946-.225 2.744.32 2.744zm4.236-3.766l.833-4.522h2.1l-2.289 12.418h-2.1l1.123-6.09h-.686c-.657 2.576-2.002 4.102-3.612 4.102-1.75 0-2.535-1.82-1.97-4.886.566-3.066 2.021-4.886 3.771-4.886 1.554 0 2.34 1.428 2.13 3.864h.7zM116.232.96h2.142l-2.42 13.132h-2.143L116.231.96zm7.175 1.33h6.3c-.749 4.06-2.757 7.434-7.608 9.674l-.945-1.708c3.177-1.512 5.046-3.374 5.924-6.16h-4.004l.333-1.806zm10.9 3.528l-.341 1.848h-1.694l-1.185 6.426h-2.268L131.24.96h2.269l-.896 4.858h1.694zm10.41-4.83h2.268l-1.304 7.07h-2.268l1.304-7.07zm-8.021 7.588h2.24l-.188 1.022h4.41l.188-1.022h2.24l-.996 5.404h-8.89l.996-5.404zm1.737 2.73l-.165.896h4.41l.165-.896h-4.41zm1.251-9.828c2.072 0 3.412 1.316 3.076 3.136-.338 1.834-2.162 3.15-4.234 3.15s-3.412-1.316-3.074-3.15c.336-1.82 2.16-3.136 4.232-3.136zm-.34 1.848c-.84 0-1.522.434-1.68 1.288-.16.868.362 1.302 1.202 1.302s1.522-.434 1.682-1.302c.158-.854-.364-1.288-1.204-1.288zM151 9.737c.742 0 1.331-.462 1.499-1.372.167-.91-.251-1.372-.993-1.372-.728 0-1.332.462-1.5 1.372-.167.91.266 1.372.994 1.372zm.841-4.564c1.946 0 3.157 1.33 2.814 3.192-.344 1.862-2.045 3.192-3.99 3.192-1.947 0-3.158-1.33-2.814-3.192.343-1.862 2.044-3.192 3.99-3.192zm1.862-3.948l-.297 1.61h2.66l-.328 1.778h-7.602l.328-1.778h2.674l.297-1.61h2.268zm6.405 4.746l-.34 1.848h-1.737l-1.158 6.286h-2.268L157.023.987h2.268l-.919 4.984h1.736zm10.414 3.654l-2.21-.238a29.815 29.815 0 0 0 1.57-5.628h-7.448l.327-1.778h9.716l-.227 1.232c-.302 1.638-.65 3.528-1.728 6.412zm-4.343 1.232h5.656l-.333 1.806h-11.9l.333-1.806h3.976l.816-4.424h2.268l-.816 4.424z"/>
        <path fill="#000" d="M21.22 53.934l-1.252 8.573h22.614l-.811 5.555H12.114l2.064-14.128h7.042zm21.892-8.53h4.943l-.812 5.555h-37.18l.812-5.555h25.15c1.363-3.937 1.954-7.086 2.433-10.06H16.806l.811-5.555h28.65l-.542 3.717c-.505 3.456-1.055 7.218-2.613 11.898zm24.863-5.818l-.076.525c-.799 5.468.642 12.073 7.15 15.135l-4.41 5.336c-4.193-1.837-6.657-5.336-7.837-9.535-2.364 4.505-5.887 8.267-10.68 10.235l-2.976-5.38c7.465-3.193 10.836-10.104 11.667-15.79l.076-.526h-7.785l.804-5.51h7.786l.786-5.381h7.086l-.786 5.38h7.655l-.805 5.511h-7.655zM81.5 27.558h7.086L82.56 68.805h-7.086l2.952-20.208h-6.387l.825-5.642h6.386l2.249-15.397zm40.958.787c9.098 0 14.643 3.062 13.908 8.092-.74 5.074-7.18 8.136-16.279 8.136-9.098 0-14.643-3.062-13.902-8.136.735-5.03 7.174-8.092 16.273-8.092zm-.78 5.336c-5.074 0-7.907.832-8.188 2.756-.288 1.968 2.303 2.8 7.377 2.8s7.907-.832 8.194-2.8c.282-1.924-2.309-2.756-7.383-2.756zM104.31 54.065h28.563l-2.07 14.172h-28.563l2.07-14.172zm20.81 5.467h-14.654l-.472 3.237h14.653l.473-3.237zM101.247 46.28h37.136l-.805 5.511h-37.136l.805-5.511zm65.885-1.575l-4.223 5.555c-4.35-1.356-6.904-3.936-8.269-7.173-2.354 3.543-5.882 6.43-10.854 7.83l-2.644-5.556c7.574-2.143 10.609-7.348 11.292-12.028l.569-3.893h7.217l-.568 3.893c-.678 4.636.77 9.404 7.48 11.372zM145.64 59.182l.812-5.555h28.344l-2.204 15.091h-7.086l1.393-9.536H145.64zm25.865-31.537h7.086l-3.559 24.364h-7.086l3.559-24.364zm35.423 17.715l-4.254 5.468c-4.176-1.356-6.623-4.068-7.88-7.436-2.337 3.718-5.827 6.649-10.73 8.18l-2.726-5.6c6.73-2.055 9.838-6.56 10.883-11.022h-7.436l.811-5.555h22.133l-.811 5.555h-7.305c-.213 4.155 1.53 8.398 7.315 10.41zm-13.063 12.773l-.677 4.636h13.91l.677-4.636h-13.91zm-8.43 10.104l2.274-15.572h27.775l-2.274 15.572h-27.776zm26.618-40.592h7.086l-3.437 23.533h-7.086l1.297-8.88h-5.206l.825-5.642h5.205l1.316-9.01zm18.018 26.376c1.75 0 2.988-2.493 3.877-8.573.888-6.08.377-8.573-1.373-8.573-1.706 0-2.945 2.493-3.833 8.573-.888 6.08-.377 8.573 1.329 8.573zm12.785-11.766l2.064-14.129h6.56l-5.666 38.799h-6.561l2.779-19.028h-2.144c-1.744 8.049-5.764 12.816-10.795 12.816-5.467 0-8.136-5.686-6.737-15.265 1.4-9.58 5.73-15.266 11.197-15.266 4.855 0 7.484 4.462 7.116 12.073h2.187zm10.632-14.697h6.693l-5.993 41.029h-6.692l5.992-41.03zm27.079 2.974l-.76 5.205c-1.163 7.961-.2 15.44 6.595 18.634l-5.01 5.555c-3.993-2.012-6.238-5.511-7.255-9.93-2.352 4.725-5.788 8.487-10.475 10.63l-3.55-5.643c7.928-3.368 11.409-11.329 12.565-19.246l.76-5.205h7.13zm12.157-2.974h7.086l-6.018 41.204h-7.086l3.399-23.27h-6.955l.824-5.643h6.955l1.795-12.291zM28.104 97.329l.85-5.817h-14.96l-.85 5.817h14.96zM36.714 86l-2.46 16.84H5.385L7.845 86h28.869zm1.233 20.602l-.81 5.555H21.957l-1.904 13.035h-7.086l1.904-13.035H0l.811-5.555h37.136zm6.774 1.837l-1.937-5.598c9.202-1.313 13.484-5.774 14.898-10.367H46.18l.805-5.511H77.82l-.805 5.511H65.512c.123 4.549 3.127 8.836 12.121 10.148l-3.48 5.555c-7.3-1.225-11.645-4.418-13.512-8.704-3.132 4.374-8.342 7.698-15.92 8.966zm17.188 6.605h15.047l-.824 5.643h-37.18l.824-5.643h15.047l1.259-8.617h7.086l-1.259 8.617zm42.46-19.377h6.08l1.693-11.591h7.086l-4.364 29.875h-7.086l1.847-12.641h-6.08l.824-5.643zm-17.694-8.53h19.42c-1.654 11.33-9.453 19.51-22.113 23.227l-2.113-5.599c8.45-2.45 13.894-6.78 15.76-12.072H85.864l.812-5.555zm7.109 31.888h21.39l-.812 5.555H85.886l1.98-13.56h7.087l-1.17 8.005zm64.677-32.237l-.716 5.205H133.6l.76-5.205h8.53l.427-2.931h7.087l-.429 2.93h8.486zm-17.305 12.466c-.185 1.268 1.013 1.75 3.2 1.75 2.187 0 3.526-.482 3.711-1.75.192-1.312-1.006-1.794-3.193-1.794-2.187 0-3.526.482-3.718 1.794zm13.691 0c-.6 4.111-5.045 6.692-11.213 6.692-6.167 0-9.858-2.58-9.258-6.692.6-4.112 5.052-6.736 11.22-6.736 6.167 0 9.852 2.624 9.251 6.736zm-13.14 19.29l-.198 1.356h21.695l-.747 5.117h-28.694l1.635-11.197h20.646l.192-1.313h-20.69l.741-5.074h27.688l-1.623 11.11h-20.645zm24.479-26.245h5.117l-.83 5.686h-5.118l-1.182 8.092h-7.086l3.207-21.958h7.086l-1.194 8.18zm43.223-8.136l-4.268 29.22h-7.086l4.268-29.22h7.086zm-28.936 13.035c-.434 2.974 1.31 4.505 3.848 4.505 2.537 0 4.729-1.53 5.163-4.505.44-3.018-1.31-4.505-3.847-4.505s-4.723 1.487-5.164 4.505zm15.922 0c-.888 6.08-6.576 10.585-12.962 10.585-6.387 0-10.759-4.505-9.87-10.585.894-6.124 6.576-10.585 12.962-10.585s10.764 4.461 9.87 10.585zm-12.898 21.827h21.783l-.812 5.555H175.6l2.05-14.041h7.087l-1.24 8.486zm43.374-18.153l.632-4.33h-6.123l-.633 4.33h6.124zm9.087-14.303l-2.887 19.77H212.95l2.888-19.77h6.998l-.677 4.636h6.124l.677-4.636h6.998zm-12.832 28.563l-.6 4.111h21.214l-.805 5.512h-28.257l2.21-15.135h27.47l-.805 5.512h-20.427zm23.415-21.958h5.118l-.837 5.73h-5.118l-1.335 9.142h-7.086l3.488-23.883h7.086l-1.316 9.01zm23.369.525l-.109.743c-.881 6.037.508 13.298 7.208 16.534l-4.66 5.556c-4.174-1.969-6.562-5.687-7.754-10.105-2.428 4.943-6.084 9.011-11.033 11.154l-3.126-5.555c7.71-3.368 11.27-10.979 12.236-17.584l.108-.743h-8.004l.843-5.774h22.745l-.843 5.774h-7.611zm21.403 5.599l-.844 5.773h-5.511l-2.939 20.121h-7.086l5.993-41.029h7.086l-2.21 15.135h5.51z"/>
        <path fill="#FFF" d="M24.98 50.684l-1.252 8.573h22.614l-.811 5.555H15.874l2.064-14.128h7.042zm21.892-8.53h4.942l-.811 5.555h-37.18l.812-5.555h25.15c1.363-3.936 1.954-7.086 2.432-10.06H20.566l.81-5.555h28.651l-.543 3.718c-.504 3.455-1.054 7.217-2.612 11.897zm24.863-5.817l-.076.525c-.8 5.467.642 12.072 7.15 15.134l-4.41 5.336c-4.194-1.837-6.657-5.336-7.837-9.535-2.364 4.505-5.888 8.267-10.68 10.235l-2.976-5.38c7.464-3.193 10.836-10.104 11.666-15.79l.077-.525h-7.786l.805-5.512h7.786l.786-5.38h7.086l-.786 5.38h7.655l-.805 5.512h-7.655zm13.523-12.03h7.086L86.32 65.557h-7.086l2.951-20.209H75.8l.824-5.642h6.387l2.248-15.397zm40.958.788c9.098 0 14.644 3.062 13.909 8.092-.741 5.074-7.18 8.136-16.279 8.136-9.098 0-14.643-3.062-13.902-8.136.734-5.03 7.174-8.092 16.272-8.092zm-.78 5.337c-5.073 0-7.906.83-8.188 2.755-.287 1.969 2.303 2.8 7.377 2.8s7.908-.831 8.195-2.8c.281-1.924-2.31-2.755-7.383-2.755zM108.07 50.815h28.563l-2.07 14.172h-28.563l2.07-14.172zm20.81 5.468h-14.654l-.473 3.236h14.653l.473-3.236zm-23.872-13.254h37.136l-.805 5.511h-37.136l.805-5.511zm65.885-1.575l-4.223 5.555c-4.351-1.356-6.905-3.936-8.27-7.173-2.354 3.543-5.881 6.43-10.853 7.83l-2.644-5.556c7.574-2.143 10.609-7.348 11.292-12.028l.569-3.893h7.217l-.569 3.893c-.677 4.636.77 9.404 7.481 11.372zM149.4 55.933l.812-5.555h28.344l-2.204 15.09h-7.086l1.392-9.535H149.4zm25.865-31.538h7.086l-3.559 24.364h-7.086l3.559-24.364zm35.423 17.715l-4.254 5.468c-4.176-1.356-6.623-4.068-7.88-7.436-2.337 3.718-5.827 6.649-10.731 8.18l-2.725-5.6c6.73-2.055 9.837-6.56 10.883-11.022h-7.436l.811-5.555h22.133l-.811 5.555h-7.305c-.213 4.156 1.529 8.398 7.315 10.41zm-13.063 12.773l-.677 4.636h13.91l.677-4.636h-13.91zm-8.43 10.104l2.274-15.572h27.775l-2.274 15.572h-27.776zm26.618-40.592h7.086l-3.438 23.533h-7.086l1.297-8.88h-5.205l.824-5.642h5.205l1.317-9.01zm18.018 26.376c1.75 0 2.988-2.493 3.876-8.573.888-6.08.378-8.573-1.372-8.573-1.706 0-2.945 2.493-3.833 8.573-.888 6.08-.377 8.573 1.329 8.573zm12.785-11.766l2.063-14.128h6.561l-5.666 38.798h-6.562l2.78-19.028h-2.144c-1.744 8.049-5.765 12.817-10.795 12.817-5.468 0-8.136-5.687-6.737-15.266 1.4-9.58 5.729-15.266 11.197-15.266 4.855 0 7.484 4.462 7.116 12.073h2.187zm10.632-14.697h6.692l-5.992 41.029h-6.693l5.993-41.03zm27.079 2.974l-.76 5.205c-1.163 7.961-.2 15.441 6.595 18.634l-5.01 5.555c-3.994-2.012-6.238-5.511-7.255-9.929-2.352 4.724-5.789 8.486-10.476 10.63l-3.55-5.644c7.928-3.368 11.41-11.328 12.566-19.246l.76-5.205h7.13zm12.157-2.974h7.086l-6.018 41.204h-7.087l3.4-23.27h-6.955l.824-5.643h6.955l1.795-12.291zM31.864 94.079l.85-5.817h-14.96l-.85 5.817h14.96zm8.61-11.329l-2.46 16.84H9.144l2.46-16.84h28.87zm1.233 20.602l-.811 5.556H25.718l-1.904 13.034h-7.086l1.904-13.034H3.76l.811-5.556h37.136zm6.774 1.838l-1.938-5.6c9.203-1.311 13.485-5.773 14.9-10.366H49.937l.805-5.511h30.838l-.805 5.511H69.272c.123 4.55 3.127 8.836 12.121 10.148l-3.48 5.555c-7.3-1.225-11.645-4.418-13.513-8.704-3.132 4.374-8.341 7.698-15.919 8.967zm17.188 6.604h15.047l-.824 5.643h-37.18l.824-5.643h15.047l1.259-8.616h7.086l-1.259 8.616zm42.46-19.377h6.08l1.693-11.591h7.086l-4.364 29.875h-7.086l1.846-12.641h-6.08l.825-5.643zm-17.694-8.53h19.42c-1.654 11.33-9.454 19.51-22.113 23.227l-2.113-5.599c8.45-2.45 13.894-6.78 15.76-12.072H89.624l.812-5.555zm7.108 31.888h21.39l-.812 5.555H89.646l1.98-13.56h7.087l-1.17 8.005zm64.678-32.237l-.717 5.205H137.36l.76-5.205h8.53l.428-2.93h7.086l-.428 2.93h8.486zm-17.305 12.466c-.185 1.268 1.013 1.75 3.2 1.75 2.187 0 3.526-.482 3.71-1.75.193-1.312-1.006-1.793-3.193-1.793-2.187 0-3.526.48-3.717 1.793zm13.69 0c-.6 4.112-5.045 6.692-11.212 6.692-6.168 0-9.859-2.58-9.258-6.692.6-4.112 5.052-6.736 11.22-6.736 6.167 0 9.851 2.624 9.25 6.736zm-13.14 19.29l-.198 1.356h21.696l-.748 5.117h-28.694l1.636-11.197h20.646l.191-1.312h-20.69l.742-5.074h27.688l-1.623 11.11h-20.646zm24.48-26.245h5.117l-.83 5.687h-5.118l-1.182 8.092h-7.086l3.207-21.958h7.086l-1.195 8.18zm43.223-8.136l-4.268 29.22h-7.086l4.268-29.22h7.086zm-28.936 13.035c-.434 2.975 1.31 4.505 3.847 4.505s4.73-1.53 5.164-4.505c.44-3.018-1.31-4.505-3.848-4.505-2.537 0-4.722 1.487-5.163 4.505zm15.922 0c-.888 6.08-6.577 10.585-12.963 10.585-6.386 0-10.758-4.505-9.87-10.585.894-6.124 6.576-10.585 12.962-10.585 6.387 0 10.765 4.461 9.87 10.585zm-12.899 21.827h21.783l-.811 5.555h-28.87l2.052-14.04h7.086l-1.24 8.485zm43.375-18.153l.632-4.33h-6.124l-.632 4.33h6.124zm9.087-14.303l-2.888 19.771h-20.12l2.887-19.77h6.999l-.677 4.636h6.123l.678-4.637h6.998zm-12.832 28.563l-.601 4.112h21.214l-.805 5.511h-28.256l2.21-15.134h27.47l-.805 5.511h-20.427zM250.3 89.924h5.118l-.837 5.73h-5.118l-1.335 9.142h-7.086l3.488-23.883h7.086l-1.316 9.011zm23.369.525l-.109.743c-.882 6.037.507 13.298 7.208 16.535l-4.66 5.555c-4.175-1.969-6.562-5.687-7.754-10.104-2.428 4.942-6.084 9.01-11.034 11.153l-3.125-5.555c7.71-3.368 11.27-10.979 12.235-17.584l.109-.743h-8.005l.844-5.774h22.745l-.843 5.774h-7.611zm21.402 5.599l-.843 5.774h-5.511l-2.94 20.12h-7.085l5.992-41.029h7.086l-2.21 15.135h5.511z"/>
    </g>
</svg>
